<?xml version="1.0" encoding="UTF-8" standalone="no"?>
<!-- Created with Inkscape (http://www.inkscape.org/) -->

<svg
   width="46.100071"
   height="20.959635"
   viewBox="0 0 12.197318 5.5455698"
   version="1.1"
   id="svg1"
   xmlns="http://www.w3.org/2000/svg"
   xmlns:svg="http://www.w3.org/2000/svg">
  <defs
     id="defs1" />
  <g
     id="layer1"
     transform="translate(-42.266512,-92.287506)">
    <path
       style="font-style:italic;font-size:5.51306px;line-height:0.7;font-family:'Happy Times at the IKOB New Game Plus Edition';-inkscape-font-specification:'Happy Times at the IKOB New Game Plus Edition Italic';letter-spacing:-0.366548px;fill:#1a1a1a;stroke:#ffffff;stroke-width:0.0325205"
       d="m 43.787841,96.548813 c 1.510579,0 2.668321,-1.433395 2.668321,-2.762043 0,-0.893115 -0.578871,-1.483013 -1.505065,-1.483013 -1.510579,0 -2.668321,1.433396 -2.668321,2.762043 0,0.893116 0.578871,1.483013 1.505065,1.483013 z m 0.165392,-0.242574 c -0.617463,0 -0.992351,-0.457584 -0.992351,-1.256978 0,-1.185308 0.760802,-2.502929 1.824823,-2.502929 0.617463,0 0.992351,0.457584 0.992351,1.256978 0,1.185307 -0.760802,2.502929 -1.824823,2.502929 z m 3.12873,1.323134 h -0.512715 l -0.03859,-0.05513 0.297705,-1.212874 h 0.05513 c 0.03859,0.06616 0.192957,0.187444 0.435531,0.187444 0.942734,0 1.973676,-1.46096 1.973676,-2.326511 0,-0.385914 -0.231549,-0.54028 -0.529254,-0.54028 -0.545793,0 -1.041968,0.479636 -1.494039,1.323135 h -0.07718 l 0.259114,-0.628489 c 0.121287,-0.297705 0.170905,-0.54028 0.04962,-0.639515 h -0.330783 c -0.21501,0.165392 -0.534767,0.573358 -0.777342,0.871063 h 0.220523 c 0.192957,-0.242574 0.402453,-0.485149 0.46861,-0.551306 l 0.06064,0.05513 -1.113638,3.462202 -0.07167,0.05513 H 45.65408 l -0.05513,0.187444 h 1.427882 z m 1.659431,-3.329888 c 0,0.628489 -0.793881,2.072911 -1.411344,2.072911 -0.176417,0 -0.330783,-0.08821 -0.330783,-0.325271 0,-0.606437 0.981325,-2.023293 1.499552,-2.023293 0.137827,0 0.242575,0.06616 0.242575,0.275653 z m 2.241133,-0.617463 c -0.926194,0 -1.797258,1.168769 -1.797258,2.061885 0,0.600923 0.319758,0.804906 0.799394,0.804906 0.711185,0 1.163256,-0.639515 1.383778,-0.926194 h -0.220522 c -0.181931,0.220523 -0.562332,0.661568 -0.970299,0.661568 -0.292192,0 -0.441045,-0.181931 -0.441045,-0.551306 0,-0.181931 0.02205,-0.363862 0.06064,-0.54028 1.356213,-0.253601 1.802771,-0.518228 1.802771,-1.003377 0,-0.275653 -0.187444,-0.507202 -0.617463,-0.507202 z m -0.121287,0.165392 c 0.187444,0 0.275653,0.110261 0.275653,0.286679 0,0.308732 -0.14334,0.595411 -1.234926,0.904142 l -0.04962,-0.0441 c 0.19847,-0.639515 0.628488,-1.146717 1.00889,-1.146717 z m 2.384471,2.646269 h 0.330784 c 0.237061,-0.165392 0.639515,-0.600924 0.871063,-0.871064 h -0.220522 c -0.203983,0.21501 -0.46861,0.496176 -0.562332,0.551306 l -0.06064,-0.05513 0.46861,-1.334161 c 0.110261,-0.314244 0.203983,-0.562332 0.203983,-0.727724 0,-0.19847 -0.132313,-0.374888 -0.385914,-0.374888 -0.700158,0 -1.284543,1.003377 -1.499552,1.516092 h -0.07718 l 0.259114,-0.694646 c 0.203983,-0.545793 0.143339,-0.689132 0.02756,-0.766315 H 52.2699 c -0.170905,0.1268 -0.529254,0.523741 -0.788368,0.926194 h 0.220522 c 0.248088,-0.363862 0.452071,-0.567845 0.496176,-0.606437 l 0.06064,0.05513 -0.683619,2.381642 h 0.418993 c 0.341809,-1.157743 1.174281,-2.447799 1.593274,-2.447799 0.110261,0 0.148853,0.07718 0.148853,0.187444 0,0.09923 -0.06064,0.286679 -0.115775,0.441045 l -0.385914,1.119151 c -0.07167,0.209497 -0.115774,0.352836 -0.115774,0.46861 0,0.09923 0.05513,0.198471 0.1268,0.231549 z"
       id="text1"
       aria-label="Open" />
  </g>
</svg>
